<?xml version="1.0" encoding="utf-8"?>
<!-- Generator: Adobe Illustrator 16.0.0, SVG Export Plug-In . SVG Version: 6.00 Build 0)  -->
<!DOCTYPE svg PUBLIC "-//W3C//DTD SVG 1.1//EN" "http://www.w3.org/Graphics/SVG/1.1/DTD/svg11.dtd">
<svg version="1.1" xmlns="http://www.w3.org/2000/svg" xmlns:xlink="http://www.w3.org/1999/xlink" x="0px" y="0px" width="600px"
	 height="600px" viewBox="0 0 600 600" enable-background="new 0 0 600 600" xml:space="preserve">
<g id="Background" display="none">
	<linearGradient id="SVGID_1_" gradientUnits="userSpaceOnUse" x1="150.0005" y1="662.1318" x2="450.0005" y2="-62.1322">
		<stop  offset="0" style="stop-color:#21409A"/>
		<stop  offset="1" style="stop-color:#F26522"/>
	</linearGradient>
	<rect display="inline" fill="url(#SVGID_1_)" width="600" height="600"/>
	<g display="inline">
		<linearGradient id="SVGID_2_" gradientUnits="userSpaceOnUse" x1="146.2979" y1="662.0996" x2="453.7021" y2="-62.0995">
			<stop  offset="0" style="stop-color:#21409A"/>
			<stop  offset="1" style="stop-color:#F26522"/>
		</linearGradient>
		<rect fill="url(#SVGID_2_)" width="600" height="600"/>
	</g>
</g>
<g id="Colored_Hammer" display="none">
	<linearGradient id="SVGID_3_" gradientUnits="userSpaceOnUse" x1="158.5542" y1="327.4238" x2="275.5887" y2="51.7079">
		<stop  offset="0" style="stop-color:#21409A"/>
		<stop  offset="1" style="stop-color:#F26522"/>
	</linearGradient>
	<path display="inline" fill="none" stroke="url(#SVGID_3_)" stroke-width="10" stroke-miterlimit="10" d="M212.975,240.135
		c-6.855-7.275-15.281-8.851-24.472-6.485c-13.777,3.545-24.022,12.042-30.919,24.311c-2.996,5.324-3.667,10.719,0.636,16.583
		c1.847,2.516,1.563,8.031,0.135,11.247c-3.974,8.938-10.653,16.065-19.169,20.916c-6.748,3.845-15.348,2.29-20.958-3.319
		c-12.483-12.485-24.904-25.042-37.081-37.825c-7.245-7.604-7.122-18.313-0.239-26.203c2.536-2.907,5.178-5.721,7.843-8.511
		c5.928-6.201,13.759-7.344,21.486-3.399c1.343,0.683,3.085,1,4.591,0.868c12.13-1.036,21.735-10.145,23.7-22.838
		c0.996-6.43,1.411-12.964,1.798-19.467c0.395-6.617,2.363-12.201,7.33-17.013c14.6-14.137,28.688-28.803,43.348-42.879
		c22.13-21.258,48.909-32.88,79.147-36.948c3.946-0.531,7.879-1.172,11.818-1.76c10.094,0,20.19,0,30.287,0
		c6.876,0.901,13.794,1.572,20.622,2.753c11.494,1.987,22.929,4.296,34.119,6.42c0.263,1.236,0.446,1.662,0.429,2.081
		c-0.159,4.294,1.079,9.588-0.996,12.56c-1.584,2.266-7.364,1.722-11.301,2.202c-26.854,3.26-52.108,11.094-74.581,26.528
		c-6.092,4.18-11.899,8.888-17.302,13.925c-11.501,10.728-11.892,23.732-1.449,35.262c4.258,4.699,8.661,9.265,12.417,13.274
		c-16.174,16.847-32.182,33.518-48.466,50.478C221.076,248.245,216.901,244.305,212.975,240.135z"/>
	<linearGradient id="SVGID_4_" gradientUnits="userSpaceOnUse" x1="337.9512" y1="463.1484" x2="422.5141" y2="263.9306">
		<stop  offset="0" style="stop-color:#21409A"/>
		<stop  offset="1" style="stop-color:#F26522"/>
	</linearGradient>
	<path display="inline" fill="none" stroke="url(#SVGID_4_)" stroke-width="10" stroke-miterlimit="10" d="M517.316,477.135
		c-8.689,8.938-17.336,17.918-26.095,26.786c-11.639,11.788-27.671,11.55-38.778-0.709c-40.753-44.962-81.44-89.988-122.152-134.989
		c-30.161-33.339-60.327-66.676-90.488-100.015c-0.982-1.089-1.948-2.202-3.245-3.67c16.33-16.786,32.355-33.259,49.685-51.072
		c5.223,5.806,9.982,11.712,15.361,16.989c70.644,69.32,141.355,138.571,212.115,207.772c6.178,6.041,10.64,12.635,10.55,21.659
		C524.199,466.596,521.982,472.338,517.316,477.135z"/>
</g>
<g id="White_Hammer">
	<path fill="#FFFFFF" d="M212.975,240.135c-6.855-7.275-15.281-8.851-24.472-6.485c-13.777,3.545-24.022,12.042-30.919,24.311
		c-2.996,5.324-3.667,10.719,0.636,16.583c1.847,2.516,1.563,8.031,0.135,11.247c-3.974,8.938-10.653,16.065-19.169,20.916
		c-6.748,3.845-15.348,2.29-20.958-3.319c-12.483-12.485-24.904-25.042-37.081-37.825c-7.245-7.604-7.122-18.313-0.239-26.203
		c2.536-2.907,5.178-5.721,7.843-8.511c5.928-6.201,13.759-7.344,21.486-3.399c1.343,0.683,3.085,1,4.591,0.868
		c12.13-1.036,21.735-10.145,23.7-22.838c0.996-6.43,1.411-12.964,1.798-19.467c0.395-6.617,2.363-12.201,7.33-17.013
		c14.6-14.137,28.688-28.803,43.348-42.879c22.13-21.258,48.91-32.88,79.148-36.948c3.945-0.531,7.879-1.172,11.818-1.76
		c10.094,0,20.189,0,30.286,0c6.876,0.901,13.794,1.572,20.622,2.753c11.494,1.987,22.929,4.296,34.119,6.42
		c0.263,1.236,0.446,1.662,0.429,2.081c-0.159,4.294,1.079,9.588-0.996,12.56c-1.584,2.266-7.364,1.722-11.301,2.202
		c-26.854,3.26-52.108,11.094-74.581,26.528c-6.092,4.18-11.898,8.888-17.301,13.925c-11.502,10.728-11.893,23.732-1.449,35.262
		c4.258,4.699,8.66,9.265,12.416,13.274c-16.174,16.847-32.182,33.518-48.465,50.478
		C221.076,248.245,216.901,244.305,212.975,240.135z"/>
	<path fill="#FFFFFF" d="M517.316,477.135c-8.689,8.938-17.336,17.918-26.095,26.786c-11.639,11.788-27.671,11.55-38.778-0.709
		c-40.753-44.962-81.44-89.988-122.152-134.989c-30.16-33.339-60.326-66.676-90.488-100.015c-0.982-1.089-1.947-2.202-3.244-3.67
		c16.33-16.786,32.355-33.259,49.684-51.072c5.223,5.806,9.982,11.712,15.361,16.989c70.645,69.32,141.355,138.571,212.115,207.772
		c6.178,6.041,10.64,12.635,10.55,21.659C524.199,466.596,521.982,472.338,517.316,477.135z"/>
</g>
<g id="Bubble" display="none">
	<path display="inline" fill="#FFFFFF" d="M300,0C134.317,0,0,134.313,0,299.996S134.317,600,300,600
		c165.687,0,300-134.321,300-300.004S465.687,0,300,0z"/>
	<linearGradient id="SVGID_5_" gradientUnits="userSpaceOnUse" x1="182.75" y1="576.2207" x2="417.2487" y2="23.7762">
		<stop  offset="0" style="stop-color:#21409A"/>
		<stop  offset="1" style="stop-color:#F26522"/>
	</linearGradient>
	<path display="inline" fill="url(#SVGID_5_)" d="M300,0C134.317,0,0,134.313,0,299.996S134.317,600,300,600
		c165.687,0,300-134.321,300-300.004S465.687,0,300,0z M191.271,238.908c-6.855-7.275-15.281-8.851-24.472-6.485
		c-13.777,3.545-24.022,12.042-30.919,24.311c-2.996,5.324-3.667,10.719,0.636,16.583c1.847,2.516,1.563,8.031,0.135,11.247
		c-3.974,8.938-10.653,16.065-19.169,20.916c-6.748,3.845-15.347,2.29-20.958-3.319c-12.483-12.485-24.904-25.042-37.081-37.825
		c-7.245-7.604-7.122-18.313-0.239-26.203c2.536-2.907,5.178-5.721,7.843-8.511c5.928-6.201,13.759-7.344,21.486-3.399
		c1.342,0.683,3.085,1,4.59,0.868c12.13-1.036,21.736-10.145,23.701-22.838c0.996-6.43,1.411-12.964,1.798-19.467
		c0.395-6.617,2.362-12.201,7.33-17.013c14.6-14.137,28.688-28.803,43.348-42.879c22.13-21.258,48.909-32.88,79.147-36.948
		c3.946-0.531,7.879-1.172,11.818-1.76c10.094,0,20.19,0,30.287,0c6.876,0.901,13.794,1.572,20.622,2.753
		c11.494,1.987,22.929,4.296,34.119,6.42c0.263,1.236,0.446,1.662,0.429,2.081c-0.159,4.294,1.079,9.588-0.996,12.56
		c-1.584,2.266-7.364,1.722-11.301,2.202c-26.854,3.26-52.108,11.094-74.581,26.528c-6.092,4.18-11.899,8.888-17.302,13.925
		c-11.501,10.728-11.892,23.732-1.449,35.262c4.258,4.699,8.661,9.265,12.417,13.274c-16.174,16.847-32.182,33.518-48.466,50.478
		C199.372,247.018,195.197,243.078,191.271,238.908z M495.613,475.908c-8.689,8.938-17.336,17.918-26.095,26.786
		c-11.639,11.788-27.671,11.55-38.778-0.709c-40.753-44.962-81.44-89.988-122.152-134.989
		c-30.161-33.339-60.327-66.676-90.488-100.015c-0.982-1.089-1.948-2.202-3.245-3.67c16.33-16.786,32.355-33.259,49.685-51.072
		c5.223,5.806,9.982,11.712,15.361,16.989C350.545,298.547,421.256,367.799,492.016,437c6.178,6.041,10.64,12.635,10.55,21.659
		C502.496,465.369,500.279,471.111,495.613,475.908z"/>
</g>
</svg>
